# xmcd CD database file
#
# Track frame offsets:
#	150
#	12399
#	25748
#	36183
#	44631
#	54516
#	66426
#	76196
#	87652
#	97314
#	109871
#	120938
#	133142
#	144223
#	156027
#	168194
#	178719
#	192401
#	205316
#	214126
#
# Disc length: 3048 seconds
#
# Revision: 4
# Processed by: cddbd v1.5.2PL0 Copyright (c) Steve Scherf et al.
# Submitted via: CDex 1.51
#
DISCID=1f0be614
DTITLE=Simply Doo Wop - Simply Doo Wop - CD 1
DYEAR=2012
DGENRE=Rhythmic Soul
TTITLE0=Poison Ivy - The Coasters
TTITLE1=Earth Angel - The Penguins
TTITLE2=Why Dp Fools Fall in Love? - Frankie Lymon and The Teenagers
TTITLE3=Yakety Yak - The Coasters
TTITLE4=There Goes My Baby - The Drifters
TTITLE5=Only You - The Platters
TTITLE6=Lollipop - The Chordettes
TTITLE7=At The Hop - Danny and The Juniors
TTITLE8=Little Darlin' - The Diamonds
TTITLE9=Get a Job - The Silhouettes
TTITLE10=Duke Of Earl - Gene Chandler
TTITLE11=Goodnight, Sweetheart, Goodnight - The Spaniels
TTITLE12=Rama Lama Ding Dong - The Edsels
TTITLE13=At My Front Door - The El Dorados
TTITLE14=Little Star - The Elegants
TTITLE15=The Book Of Love - The Monotones
TTITLE16=Crying In The Chapel - The Orioles
TTITLE17=Sixteen Candles - The Crests
TTITLE18=Tonight's The Night - The Shirelles
TTITLE19=Sincerely - The Moonglows
EXTD=YEAR: 2012
EXTT0=
EXTT1=
EXTT2=
EXTT3=
EXTT4=
EXTT5=
EXTT6=
EXTT7=
EXTT8=
EXTT9=
EXTT10=
EXTT11=
EXTT12=
EXTT13=
EXTT14=
EXTT15=
EXTT16=
EXTT17=
EXTT18=
EXTT19=
PLAYORDER=
